STARTFONT 2.1
COMMENT
COMMENT Converted from OpenType font "Cherokee-Numerals.ttf" by "otf2bdf 3.0".
COMMENT
FONT -FreeType-cherokeenumerals-Medium-R-Normal--17-120-100-100-P-101-ISO10646-1
SIZE 12 100 100
FONTBOUNDINGBOX 15 13 0 0
STARTPROPERTIES 19
FOUNDRY "FreeType"
FAMILY_NAME "cherokeenumerals"
WEIGHT_NAME "Medium"
SLANT "R"
SETWIDTH_NAME "Normal"
ADD_STYLE_NAME ""
PIXEL_SIZE 17
POINT_SIZE 120
RESOLUTION_X 100
RESOLUTION_Y 100
SPACING "P"
AVERAGE_WIDTH 101
CHARSET_REGISTRY "ISO10646"
CHARSET_ENCODING "1"
FONT_ASCENT 12
FONT_DESCENT 0
COPYRIGHT "unnamed"
_OTF_FONTFILE "Cherokee-Numerals.ttf"
_OTF_PSNAME "cherokeenumerals"
ENDPROPERTIES
CHARS 12
STARTCHAR 0020
ENCODING 32
SWIDTH 300 0
DWIDTH 5 0
BBX 0 0 0 0
BITMAP
ENDCHAR
STARTCHAR 0030
ENCODING 48
SWIDTH 780 0
DWIDTH 13 0
BBX 11 12 1 1
BITMAP
01C0
43E0
2760
3FC0
3FC0
0400
0400
FC00
9820
8C20
9FE0
F000
ENDCHAR
STARTCHAR 0031
ENCODING 49
SWIDTH 720 0
DWIDTH 12 0
BBX 8 12 3 0
BITMAP
0F
77
4E
4E
0C
1C
10
30
20
60
40
80
ENDCHAR
STARTCHAR 0032
ENCODING 50
SWIDTH 720 0
DWIDTH 12 0
BBX 9 13 2 0
BITMAP
1F00
3300
E700
8E00
8E00
0800
1800
3000
2080
6780
5E00
F000
E000
ENDCHAR
STARTCHAR 0033
ENCODING 51
SWIDTH 840 0
DWIDTH 14 0
BBX 12 13 1 0
BITMAP
0800
0800
1800
1000
1000
1000
2000
2070
3DC0
7700
6700
C400
8000
ENDCHAR
STARTCHAR 0034
ENCODING 52
SWIDTH 720 0
DWIDTH 12 0
BBX 10 13 1 0
BITMAP
0800
1000
3000
2000
27C0
27C0
6700
5F00
7300
6300
4300
C000
8000
ENDCHAR
STARTCHAR 0035
ENCODING 53
SWIDTH 900 0
DWIDTH 15 0
BBX 13 13 1 0
BITMAP
1000
1000
3000
2000
2300
2300
27B8
4FE0
5BC0
7300
6000
C000
8000
ENDCHAR
STARTCHAR 0036
ENCODING 54
SWIDTH 840 0
DWIDTH 14 0
BBX 12 12 1 0
BITMAP
0030
0020
0060
0060
0040
01C0
0380
0380
6780
CD80
79C0
6000
ENDCHAR
STARTCHAR 0037
ENCODING 55
SWIDTH 840 0
DWIDTH 14 0
BBX 12 13 1 0
BITMAP
0040
0040
01C0
0180
0180
0180
0300
0300
C770
87D0
8B80
9B80
F380
ENDCHAR
STARTCHAR 0038
ENCODING 56
SWIDTH 900 0
DWIDTH 15 0
BBX 14 13 0 0
BITMAP
0180
0180
01B0
0220
0220
0220
02E4
02E4
66D8
C6C0
8EC0
5BC0
7380
ENDCHAR
STARTCHAR 0039
ENCODING 57
SWIDTH 960 0
DWIDTH 16 0
BBX 15 13 0 0
BITMAP
0180
0180
01B0
0224
0224
0224
02E4
02E4
66DA
C6C0
8EC0
5BC0
7380
ENDCHAR
STARTCHAR 00A0
ENCODING 160
SWIDTH 300 0
DWIDTH 5 0
BBX 0 0 0 0
BITMAP
ENDCHAR
ENDFONT
